<svg width="21" height="16" viewBox="0 0 21 16" xmlns="http://www.w3.org/2000/svg">
    <g fill-rule="nonzero" fill="none">
        <path d="M0 0h21v16H0z"/>
        <path d="M19.255.25c.751 0 1.36.609 1.36 1.36v12.78a1.36 1.36 0 0 1-1.36 1.36H1.735a1.36 1.36 0 0 1-1.36-1.36V1.61C.375.859.984.25 1.735.25h17.52zm0 .75H1.735a.611.611 0 0 0-.62.61v12.78a.61.61 0 0 0 .62.61h17.52a.611.611 0 0 0 .62-.61V1.61a.61.61 0 0 0-.62-.61zM7.769 2.494l.164.39.318-.182a1.299 1.299 0 0 1 1.882.714l.724 2.16a.625.625 0 0 1 .467.383 3.959 3.959 0 0 1-1.107 4.476l.08.106.065.082c.061.075.115.133.154.17l-.19.205c2.154 2.225 6.578 2.465 6.864.504.11-.751-.177-1.091-1.249-1.566l-.476-.201c-1.24-.51-1.78-.862-2.085-1.606-.448-1.092-.033-1.927 1.033-2.734a2.076 2.076 0 1 1 .43.68c-.749.582-.987 1.107-.723 1.751.167.408.5.665 1.265 1.005l.496.21c1.683.691 2.295 1.243 2.1 2.577-.407 2.79-5.63 2.568-8.198-.034l-.185.199a3.072 3.072 0 0 1-.28-.304l-.086-.107-.183-.246A3.96 3.96 0 0 1 4.532 9.87a.625.625 0 0 1-.096-.597L2.93 7.575a1.3 1.3 0 0 1 .323-1.988l.316-.184-.256-.338.273-.229c.467-.393.7-.502.991-.424a.837.837 0 0 1 .501.386c.135.236.191.483.148.717a.78.78 0 0 1-.38.538l-.547.316-.365-.484-.38.221a.7.7 0 0 0-.175 1.071l1.507 1.696a.625.625 0 0 1 .63.225 2.709 2.709 0 0 0 4.647-2.675.625.625 0 0 1 .121-.656l-.721-2.163a.7.7 0 0 0-1.013-.383l-.383.22.236.558-.544.313a.777.777 0 0 1-.658.063c-.225-.08-.412-.253-.547-.487a.828.828 0 0 1-.083-.63c.07-.262.251-.408.715-.588l.482-.176zm8.581.731a1.426 1.426 0 1 0 .001 2.851 1.426 1.426 0 0 0-.001-2.851zm0 .925a.5.5 0 1 1 0 1 .5.5 0 0 1 0-1z" fill="#000"/>
    </g>
</svg>
