<svg width="21" height="16" viewBox="0 0 21 16" xmlns="http://www.w3.org/2000/svg">
    <g fill-rule="nonzero" fill="none">
        <path d="M0 0h21v16H0z"/>
        <path d="M19.255.25c.751 0 1.36.609 1.36 1.36v12.78a1.36 1.36 0 0 1-1.36 1.36H1.735a1.36 1.36 0 0 1-1.36-1.36V1.61C.375.859.984.25 1.735.25h17.52zm0 .75H1.735a.61.61 0 0 0-.62.61v12.78a.61.61 0 0 0 .62.61h17.52a.61.61 0 0 0 .62-.61V1.61a.61.61 0 0 0-.62-.61z" fill="#000"/>
        <path d="m5.476 2.25.146.014.028.006.146.03.124.082.023.016.114.093 1.522 1.524h1.45l1.524-1.524a.821.821 0 0 1 .472-.234l.109-.007h6.425c.658 0 1.192.534 1.192 1.193v2.006a1.036 1.036 0 0 1-1.818.679l-.675-.78a.178.178 0 0 0-.111-.06.177.177 0 0 0-.199.146l-.031.273c-.047.452-.07.943-.07 1.473 0 .637.033 1.218.1 1.741a.177.177 0 0 0 .31.095l.676-.78a1.035 1.035 0 0 1 1.818.68v2.002c0 .659-.534 1.193-1.192 1.193l-6.155-.001-1.482 1.413a.821.821 0 0 1-.442.217l-.125.01H7.296a.821.821 0 0 1-.559-.22L5.21 12.11l-1.768.001c-.617 0-1.125-.47-1.186-1.071l-.006-.122V3.443c0-.659.533-1.193 1.192-1.193h2.034z" fill="#000"/>
        <path d="M5.476 3H3.442A.443.443 0 0 0 3 3.443v7.475c0 .245.198.443.442.443h2.035c.018 0 .036.007.049.019l1.722 1.6c.013.013.03.02.048.02h2.06a.071.071 0 0 0 .048-.02l1.68-1.6a.071.071 0 0 1 .048-.019h6.427a.443.443 0 0 0 .442-.443V8.915a.285.285 0 0 0-.5-.187l-.676.78a.927.927 0 0 1-1.621-.491 14.422 14.422 0 0 1-.108-1.837c0-.555.025-1.072.075-1.55l.032-.282a.928.928 0 0 1 1.622-.49l.675.778a.285.285 0 0 0 .5-.187V3.443A.443.443 0 0 0 17.56 3h-6.425a.071.071 0 0 0-.05.02L9.36 4.745a.071.071 0 0 1-.05.021H7.298a.071.071 0 0 1-.05-.02L5.525 3.02l-.023-.016L5.476 3z" fill="#CCC"/>
    </g>
</svg>
